<?xml version="1.0" encoding="UTF-8" standalone="no"?>
<!-- Created with Inkscape (http://www.inkscape.org/) -->

<svg
   xmlns:dc="http://purl.org/dc/elements/1.1/"
   xmlns:cc="http://creativecommons.org/ns#"
   xmlns:rdf="http://www.w3.org/1999/02/22-rdf-syntax-ns#"
   xmlns:svg="http://www.w3.org/2000/svg"
   xmlns="http://www.w3.org/2000/svg"
   xmlns:sodipodi="http://sodipodi.sourceforge.net/DTD/sodipodi-0.dtd"
   xmlns:inkscape="http://www.inkscape.org/namespaces/inkscape"
   width="196.8775mm"
   height="220.09816mm"
   viewBox="0 0 196.8775 220.09816"
   version="1.1"
   id="svg5251"
   sodipodi:docname="1eye.svg"
   inkscape:version="0.92.4 (5da689c313, 2019-01-14)"
   inkscape:export-filename="eyes.png"
   inkscape:export-xdpi="96"
   inkscape:export-ydpi="96">
  <title
     id="title4537">Apparition</title>
  <defs
     id="defs5245" />
  <sodipodi:namedview
     id="base"
     pagecolor="#ffffff"
     bordercolor="#666666"
     borderopacity="1.0"
     inkscape:pageopacity="0.0"
     inkscape:pageshadow="2"
     inkscape:zoom="0.57572231"
     inkscape:cx="630.81368"
     inkscape:cy="397.07629"
     inkscape:document-units="px"
     inkscape:current-layer="layer1"
     showgrid="false"
     showborder="true"
     showguides="false"
     inkscape:snap-intersection-paths="true"
     inkscape:object-nodes="true"
     inkscape:snap-smooth-nodes="true"
     inkscape:snap-global="true"
     inkscape:window-width="1920"
     inkscape:window-height="986"
     inkscape:window-x="-11"
     inkscape:window-y="-11"
     inkscape:window-maximized="1"
     inkscape:object-paths="false"
     inkscape:snap-nodes="false"
     fit-margin-top="10"
     fit-margin-left="10"
     fit-margin-right="10"
     fit-margin-bottom="10"
     inkscape:pagecheckerboard="true" />
  <metadata
     id="metadata5248">
    <rdf:RDF>
      <cc:Work
         rdf:about="">
        <dc:format>image/svg+xml</dc:format>
        <dc:type
           rdf:resource="http://purl.org/dc/dcmitype/StillImage" />
        <dc:title>Apparition</dc:title>
        <dc:creator>
          <cc:Agent>
            <dc:title>Jmagoo</dc:title>
          </cc:Agent>
        </dc:creator>
        <dc:date>26/10/2020</dc:date>
      </cc:Work>
    </rdf:RDF>
  </metadata>
  <g
     inkscape:label="Layer 1"
     inkscape:groupmode="layer"
     id="layer1"
     transform="translate(-754.68308,185.20935)">
    <g
       id="g5514"
       transform="translate(186.26667,-25.4)">
      <path
         inkscape:connector-curvature="0"
         id="path5488"
         transform="scale(0.26458333)"
         d="m 2520.3965,-377.21289 c -41.2291,0 -78.3926,21.61887 -105.2774,56.23828 -1.5875,2.04425 -3.2735,3.96325 -4.7871,6.09766 -76.0912,77.57165 -148.7006,123.81866 -216.7011,128.57422 69.5959,4.86713 144.0215,53.19839 222.0644,134.089839 4.7445,4.917681 9.4985,9.923922 14.2695,15.080079 v -1.007813 c 25.0336,24.583308 56.3906,39.212897 90.4317,39.2128906 34.0419,-3.8e-6 65.3997,-14.6303666 90.4336,-39.2148436 v 1.009766 c 4.2998,-4.646948 8.583,-9.136401 12.8613,-13.589844 78.5554,-81.770424 153.4589,-130.683724 223.4727,-135.580074 -68.0019,-4.75565 -140.6142,-51.00382 -216.7071,-128.57813 -1.9816,-2.79433 -4.1598,-5.34351 -6.2675,-7.98242 -26.7647,-33.50994 -63.3186,-54.34961 -103.793,-54.34961 z"
         style="opacity:1;fill:none;fill-opacity:0.82352941;stroke:#000000;stroke-width:15;stroke-linecap:round;stroke-linejoin:round;stroke-miterlimit:4;stroke-dasharray:none;stroke-opacity:1" />
      <path
         transform="scale(0.26458333)"
         inkscape:connector-curvature="0"
         id="path5490"
         d="m 2415.1191,-320.97461 c -1.3403,6.43615 -2.6709,12.88786 -3.8183,19.5918 -1.4902,8.70688 -2.8157,17.63068 -3.9629,26.74609 -1.1473,9.11541 -2.1178,18.42327 -2.9024,27.89844 -0.7845,9.47517 -1.383,19.11814 -1.7851,28.9043 -0.4022,9.78615 -0.6074,19.71531 -0.6074,29.76367 0,10.04836 0.2052,19.97752 0.6074,29.76367 0.4021,9.78615 1.0006,19.42912 1.7851,28.9043 0.7846,9.47517 1.7551,18.78302 2.9024,27.89843 1.1472,9.115417 2.4727,18.039218 3.9629,26.746098 1.3203,7.714475 2.8196,15.187266 4.3945,22.544921 4.7445,4.917681 9.4985,9.923922 14.2695,15.080079 v -1.007813 c 25.0336,24.583308 56.3906,39.212897 90.4317,39.2128906 34.0419,-3.8e-6 65.3997,-14.6303666 90.4336,-39.2148436 v 1.009766 c 4.2998,-4.646948 8.583,-9.136401 12.8613,-13.589844 1.6965,-7.817505 3.2779,-15.810834 4.6856,-24.035156 1.4901,-8.706879 2.8136,-17.630682 3.9609,-26.746098 1.1472,-9.11541 2.1178,-18.42326 2.9023,-27.89843 0.7846,-9.47517 1.383,-19.11815 1.7852,-28.9043 0.4021,-9.78615 0.6094,-19.71531 0.6094,-29.76367 0,-10.04836 -0.2073,-19.97752 -0.6094,-29.76367 -0.4022,-9.78616 -1.0006,-19.42913 -1.7852,-28.9043 -0.7845,-9.47517 -1.7551,-18.78303 -2.9023,-27.89844 -1.1473,-9.11541 -2.4708,-18.03921 -3.9609,-26.74609 -1.258,-7.35016 -2.6981,-14.4535 -4.1875,-21.48047 -26.7647,-33.50994 -63.3186,-54.34961 -103.793,-54.34961 -41.2291,0 -78.3926,21.61887 -105.2774,56.23828 z"
         style="opacity:1;fill:#ff0000;fill-opacity:0.82352941;stroke:#000000;stroke-width:15;stroke-linecap:round;stroke-linejoin:round;stroke-miterlimit:4;stroke-dasharray:none;stroke-opacity:1" />
      <path
         style="opacity:1;fill:#000000;fill-opacity:0.9948454;stroke:#000000;stroke-width:2.64583325;stroke-linecap:round;stroke-linejoin:round;stroke-miterlimit:4;stroke-dasharray:none;stroke-opacity:1"
         d="m 681.63503,-49.760284 c 0,20.911506 -6.68339,37.86363 -14.92777,37.863632 -8.24438,3e-6 -14.92776,-16.952123 -14.92776,-37.863632 0,-20.911509 6.68338,-37.863631 14.92776,-37.863631 8.24438,0 14.92777,16.952126 14.92777,37.863631 z"
         id="path5492"
         inkscape:connector-curvature="0"
         sodipodi:nodetypes="sssss" />
      <path
         sodipodi:nodetypes="sssss"
         inkscape:connector-curvature="0"
         id="path5494"
         d="m 681.63503,-49.760284 c 0,20.911506 -6.68339,37.86363 -14.92777,37.863632 -8.24438,3e-6 -14.92776,-16.952123 -14.92776,-37.863632 0,-20.911509 6.68338,-37.863631 14.92776,-37.863631 8.24438,0 14.92777,16.952126 14.92777,37.863631 z"
         style="opacity:1;fill:#000000;fill-opacity:0.9948454;stroke:#000000;stroke-width:2.64583325;stroke-linecap:round;stroke-linejoin:round;stroke-miterlimit:4;stroke-dasharray:none;stroke-opacity:1" />
      <g
         transform="translate(0,-0.03444498)"
         id="g5500">
        <path
           sodipodi:type="star"
           style="opacity:1;fill:#000000;fill-opacity:0.9948454;stroke:#000000;stroke-width:17.46611214;stroke-linecap:round;stroke-linejoin:round;stroke-miterlimit:4;stroke-dasharray:none;stroke-opacity:1"
           id="path5496"
           sodipodi:sides="3"
           sodipodi:cx="666.22083"
           sodipodi:cy="-131.62502"
           sodipodi:r1="52.411549"
           sodipodi:r2="26.205772"
           sodipodi:arg1="0.52359878"
           sodipodi:arg2="1.5707963"
           inkscape:flatsided="true"
           inkscape:rounded="0"
           inkscape:randomized="0"
           d="m 711.61056,-105.41924 -90.77947,0 45.38974,-78.61732 z"
           inkscape:transform-center-x="3.574668e-06"
           inkscape:transform-center-y="-6.1114141"
           transform="matrix(0.11069812,0,0,0.46641747,593.78106,-59.864195)" />
        <path
           transform="matrix(0.11069812,0,0,-0.46641747,593.78106,-39.587454)"
           inkscape:transform-center-y="6.1114128"
           inkscape:transform-center-x="3.574668e-06"
           d="m 711.61056,-105.41924 -90.77947,0 45.38974,-78.61732 z"
           inkscape:randomized="0"
           inkscape:rounded="0"
           inkscape:flatsided="true"
           sodipodi:arg2="1.5707963"
           sodipodi:arg1="0.52359878"
           sodipodi:r2="26.205772"
           sodipodi:r1="52.411549"
           sodipodi:cy="-131.62502"
           sodipodi:cx="666.22083"
           sodipodi:sides="3"
           id="path5498"
           style="opacity:1;fill:#000000;fill-opacity:0.9948454;stroke:#000000;stroke-width:17.46611214;stroke-linecap:round;stroke-linejoin:round;stroke-miterlimit:4;stroke-dasharray:none;stroke-opacity:1"
           sodipodi:type="star" />
      </g>
      <g
         id="g5506"
         transform="rotate(-38.403136,667.481,-49.743055)">
        <path
           transform="matrix(0.11069812,0,0,0.46641747,593.78106,-59.864195)"
           inkscape:transform-center-y="-6.1114141"
           inkscape:transform-center-x="3.574668e-06"
           d="m 711.61056,-105.41924 -90.77947,0 45.38974,-78.61732 z"
           inkscape:randomized="0"
           inkscape:rounded="0"
           inkscape:flatsided="true"
           sodipodi:arg2="1.5707963"
           sodipodi:arg1="0.52359878"
           sodipodi:r2="26.205772"
           sodipodi:r1="52.411549"
           sodipodi:cy="-131.62502"
           sodipodi:cx="666.22083"
           sodipodi:sides="3"
           id="path5502"
           style="opacity:1;fill:#000000;fill-opacity:0.9948454;stroke:#000000;stroke-width:17.46611214;stroke-linecap:round;stroke-linejoin:round;stroke-miterlimit:4;stroke-dasharray:none;stroke-opacity:1"
           sodipodi:type="star" />
        <path
           sodipodi:type="star"
           style="opacity:1;fill:#000000;fill-opacity:0.9948454;stroke:#000000;stroke-width:17.46611214;stroke-linecap:round;stroke-linejoin:round;stroke-miterlimit:4;stroke-dasharray:none;stroke-opacity:1"
           id="path5504"
           sodipodi:sides="3"
           sodipodi:cx="666.22083"
           sodipodi:cy="-131.62502"
           sodipodi:r1="52.411549"
           sodipodi:r2="26.205772"
           sodipodi:arg1="0.52359878"
           sodipodi:arg2="1.5707963"
           inkscape:flatsided="true"
           inkscape:rounded="0"
           inkscape:randomized="0"
           d="m 711.61056,-105.41924 -90.77947,0 45.38974,-78.61732 z"
           inkscape:transform-center-x="3.574668e-06"
           inkscape:transform-center-y="6.1114128"
           transform="matrix(0.11069812,0,0,-0.46641747,593.78106,-39.587454)" />
      </g>
      <g
         transform="matrix(-0.78365946,-0.62119067,-0.62119067,0.78365946,1159.7578,403.87153)"
         id="g5512">
        <path
           sodipodi:type="star"
           style="opacity:1;fill:#000000;fill-opacity:0.9948454;stroke:#000000;stroke-width:17.46611214;stroke-linecap:round;stroke-linejoin:round;stroke-miterlimit:4;stroke-dasharray:none;stroke-opacity:1"
           id="path5508"
           sodipodi:sides="3"
           sodipodi:cx="666.22083"
           sodipodi:cy="-131.62502"
           sodipodi:r1="52.411549"
           sodipodi:r2="26.205772"
           sodipodi:arg1="0.52359878"
           sodipodi:arg2="1.5707963"
           inkscape:flatsided="true"
           inkscape:rounded="0"
           inkscape:randomized="0"
           d="m 711.61056,-105.41924 -90.77947,0 45.38974,-78.61732 z"
           inkscape:transform-center-x="3.574668e-06"
           inkscape:transform-center-y="-6.1114141"
           transform="matrix(0.11069812,0,0,0.46641747,593.78106,-59.864195)" />
        <path
           transform="matrix(0.11069812,0,0,-0.46641747,593.78106,-39.587454)"
           inkscape:transform-center-y="6.1114128"
           inkscape:transform-center-x="3.574668e-06"
           d="m 711.61056,-105.41924 -90.77947,0 45.38974,-78.61732 z"
           inkscape:randomized="0"
           inkscape:rounded="0"
           inkscape:flatsided="true"
           sodipodi:arg2="1.5707963"
           sodipodi:arg1="0.52359878"
           sodipodi:r2="26.205772"
           sodipodi:r1="52.411549"
           sodipodi:cy="-131.62502"
           sodipodi:cx="666.22083"
           sodipodi:sides="3"
           id="path5510"
           style="opacity:1;fill:#000000;fill-opacity:0.9948454;stroke:#000000;stroke-width:17.46611214;stroke-linecap:round;stroke-linejoin:round;stroke-miterlimit:4;stroke-dasharray:none;stroke-opacity:1"
           sodipodi:type="star" />
      </g>
    </g>
  </g>
</svg>
